{
    "asset" : {
        "generator" : "Khronos glTF Blender I/O v1.6.16",
        "version" : "2.0"
    },
    "scene" : 0,
    "scenes" : [
        {
            "name" : "Cycles",
            "nodes" : [
                0,
                4
            ]
        }
    ],
    "nodes" : [
        {
            "mesh" : 0,
            "name" : "Cube.000",
            "translation" : [
                -0.5972596406936646,
                -0.12053894996643066,
                0
            ]
        },
        {
            "mesh" : 1,
            "name" : "Cube.001"
        },
        {
            "mesh" : 2,
            "name" : "Gun_trigger.001",
            "translation" : [
                -0.1308179646730423,
                0.24100036919116974,
                0
            ]
        },
        {
            "mesh" : 3,
            "name" : "Plane.002",
            "rotation" : [
                0,
                1,
                0,
                7.549790126404332e-08
            ],
            "scale" : [
                0.00010001659393310547,
                0.00010001659393310547,
                4.559052467811853e-05
            ],
            "translation" : [
                0.8027567863464355,
                0.49839529395103455,
                0
            ]
        },
        {
            "children" : [
                1,
                2,
                3
            ],
            "mesh" : 4,
            "name" : "Gun.001"
        }
    ],
    "animations" : [
        {
            "channels" : [
                {
                    "sampler" : 0,
                    "target" : {
                        "node" : 1,
                        "path" : "translation"
                    }
                }
            ],
            "name" : "Cube.005Action.002",
            "samplers" : [
                {
                    "input" : 24,
                    "interpolation" : "LINEAR",
                    "output" : 25
                }
            ]
        },
        {
            "channels" : [
                {
                    "sampler" : 0,
                    "target" : {
                        "node" : 3,
                        "path" : "scale"
                    }
                },
                {
                    "sampler" : 1,
                    "target" : {
                        "node" : 3,
                        "path" : "translation"
                    }
                },
                {
                    "sampler" : 2,
                    "target" : {
                        "node" : 3,
                        "path" : "rotation"
                    }
                }
            ],
            "name" : "Plane.001Action.002",
            "samplers" : [
                {
                    "input" : 24,
                    "interpolation" : "LINEAR",
                    "output" : 26
                },
                {
                    "input" : 24,
                    "interpolation" : "LINEAR",
                    "output" : 27
                },
                {
                    "input" : 28,
                    "interpolation" : "LINEAR",
                    "output" : 29
                }
            ]
        },
        {
            "channels" : [
                {
                    "sampler" : 0,
                    "target" : {
                        "node" : 2,
                        "path" : "rotation"
                    }
                }
            ],
            "name" : "Cube.006Action.002",
            "samplers" : [
                {
                    "input" : 24,
                    "interpolation" : "LINEAR",
                    "output" : 30
                }
            ]
        }
    ],
    "materials" : [
        {
            "doubleSided" : true,
            "name" : "handgun_cycles",
            "pbrMetallicRoughness" : {}
        },
        {
            "doubleSided" : true,
            "emissiveFactor" : [
                1,
                1,
                1
            ],
            "emissiveTexture" : {
                "index" : 0
            },
            "name" : "Fire_cycles",
            "pbrMetallicRoughness" : {}
        },
        {
            "doubleSided" : true,
            "name" : "Material.002",
            "pbrMetallicRoughness" : {}
        }
    ],
    "meshes" : [
        {
            "name" : "Cube.011",
            "primitives" : [
                {
                    "attributes" : {
                        "POSITION" : 0,
                        "NORMAL" : 1,
                        "TEXCOORD_0" : 2
                    },
                    "indices" : 3,
                    "material" : 0
                }
            ]
        },
        {
            "name" : "Cube.013",
            "primitives" : [
                {
                    "attributes" : {
                        "POSITION" : 4,
                        "NORMAL" : 5,
                        "TEXCOORD_0" : 6
                    },
                    "indices" : 7,
                    "material" : 0
                }
            ]
        },
        {
            "name" : "Cube.014",
            "primitives" : [
                {
                    "attributes" : {
                        "POSITION" : 8,
                        "NORMAL" : 9,
                        "TEXCOORD_0" : 10
                    },
                    "indices" : 11,
                    "material" : 0
                }
            ]
        },
        {
            "name" : "Plane.004",
            "primitives" : [
                {
                    "attributes" : {
                        "POSITION" : 12,
                        "NORMAL" : 13,
                        "TEXCOORD_0" : 14
                    },
                    "indices" : 15,
                    "material" : 1
                }
            ]
        },
        {
            "name" : "Cube.012",
            "primitives" : [
                {
                    "attributes" : {
                        "POSITION" : 16,
                        "NORMAL" : 17,
                        "TEXCOORD_0" : 18
                    },
                    "indices" : 19,
                    "material" : 0
                },
                {
                    "attributes" : {
                        "POSITION" : 20,
                        "NORMAL" : 21,
                        "TEXCOORD_0" : 22
                    },
                    "indices" : 23,
                    "material" : 2
                }
            ]
        }
    ],
    "textures" : [
        {
            "sampler" : 0,
            "source" : 0
        }
    ],
    "images" : [
        {
            "bufferView" : 16,
            "mimeType" : "image/png",
            "name" : "handgun_Fire"
        }
    ],
    "accessors" : [
        {
            "bufferView" : 0,
            "componentType" : 5126,
            "count" : 44,
            "max" : [
                0.28768035769462585,
                0.5153701305389404,
                0.07410739362239838
            ],
            "min" : [
                -0.3257295489311218,
                -0.4640459418296814,
                -0.07410739362239838
            ],
            "type" : "VEC3"
        },
        {
            "bufferView" : 1,
            "componentType" : 5126,
            "count" : 44,
            "type" : "VEC3"
        },
        {
            "bufferView" : 2,
            "componentType" : 5126,
            "count" : 44,
            "type" : "VEC2"
        },
        {
            "bufferView" : 3,
            "componentType" : 5123,
            "count" : 108,
            "type" : "SCALAR"
        },
        {
            "bufferView" : 4,
            "componentType" : 5126,
            "count" : 626,
            "max" : [
                0.8573475480079651,
                0.6452512741088867,
                0.101531021296978
            ],
            "min" : [
                -0.7594957947731018,
                0.2715325951576233,
                -0.101531021296978
            ],
            "type" : "VEC3"
        },
        {
            "bufferView" : 5,
            "componentType" : 5126,
            "count" : 626,
            "type" : "VEC3"
        },
        {
            "bufferView" : 6,
            "componentType" : 5126,
            "count" : 626,
            "type" : "VEC2"
        },
        {
            "bufferView" : 7,
            "componentType" : 5123,
            "count" : 1371,
            "type" : "SCALAR"
        },
        {
            "bufferView" : 8,
            "componentType" : 5126,
            "count" : 205,
            "max" : [
                0.013585127890110016,
                0.0075545161962509155,
                0.014872955158352852
            ],
            "min" : [
                -0.13160686194896698,
                -0.20116877555847168,
                -0.01616862416267395
            ],
            "type" : "VEC3"
        },
        {
            "bufferView" : 9,
            "componentType" : 5126,
            "count" : 205,
            "type" : "VEC3"
        },
        {
            "bufferView" : 10,
            "componentType" : 5126,
            "count" : 205,
            "type" : "VEC2"
        },
        {
            "bufferView" : 11,
            "componentType" : 5123,
            "count" : 456,
            "type" : "SCALAR"
        },
        {
            "bufferView" : 12,
            "componentType" : 5126,
            "count" : 56,
            "max" : [
                0.2640668749809265,
                0.8283010721206665,
                0.5799766778945923
            ],
            "min" : [
                -1.9005217552185059,
                -0.8075804710388184,
                -0.5799769163131714
            ],
            "type" : "VEC3"
        },
        {
            "bufferView" : 13,
            "componentType" : 5126,
            "count" : 56,
            "type" : "VEC3"
        },
        {
            "bufferView" : 14,
            "componentType" : 5126,
            "count" : 56,
            "type" : "VEC2"
        },
        {
            "bufferView" : 15,
            "componentType" : 5123,
            "count" : 84,
            "type" : "SCALAR"
        },
        {
            "bufferView" : 17,
            "componentType" : 5126,
            "count" : 806,
            "max" : [
                0.8747486472129822,
                0.5667501091957092,
                0.12390203028917313
            ],
            "min" : [
                -0.9806819558143616,
                -0.5238857865333557,
                -0.12754587829113007
            ],
            "type" : "VEC3"
        },
        {
            "bufferView" : 18,
            "componentType" : 5126,
            "count" : 806,
            "type" : "VEC3"
        },
        {
            "bufferView" : 19,
            "componentType" : 5126,
            "count" : 806,
            "type" : "VEC2"
        },
        {
            "bufferView" : 20,
            "componentType" : 5123,
            "count" : 3207,
            "type" : "SCALAR"
        },
        {
            "bufferView" : 21,
            "componentType" : 5126,
            "count" : 55,
            "max" : [
                0.8567027449607849,
                0.5536623001098633,
                0.05740214139223099
            ],
            "min" : [
                0.3732156753540039,
                0.443128377199173,
                -0.05740214139223099
            ],
            "type" : "VEC3"
        },
        {
            "bufferView" : 22,
            "componentType" : 5126,
            "count" : 55,
            "type" : "VEC3"
        },
        {
            "bufferView" : 23,
            "componentType" : 5126,
            "count" : 55,
            "type" : "VEC2"
        },
        {
            "bufferView" : 24,
            "componentType" : 5123,
            "count" : 240,
            "type" : "SCALAR"
        },
        {
            "bufferView" : 25,
            "componentType" : 5126,
            "count" : 6,
            "max" : [
                0.20833333333333334
            ],
            "min" : [
                0
            ],
            "type" : "SCALAR"
        },
        {
            "bufferView" : 26,
            "componentType" : 5126,
            "count" : 6,
            "type" : "VEC3"
        },
        {
            "bufferView" : 27,
            "componentType" : 5126,
            "count" : 6,
            "type" : "VEC3"
        },
        {
            "bufferView" : 28,
            "componentType" : 5126,
            "count" : 6,
            "type" : "VEC3"
        },
        {
            "bufferView" : 29,
            "componentType" : 5126,
            "count" : 2,
            "max" : [
                0.125
            ],
            "min" : [
                0.08333333333333333
            ],
            "type" : "SCALAR"
        },
        {
            "bufferView" : 30,
            "componentType" : 5126,
            "count" : 2,
            "type" : "VEC4"
        },
        {
            "bufferView" : 31,
            "componentType" : 5126,
            "count" : 6,
            "type" : "VEC4"
        }
    ],
    "bufferViews" : [
        {
            "buffer" : 0,
            "byteLength" : 528,
            "byteOffset" : 0
        },
        {
            "buffer" : 0,
            "byteLength" : 528,
            "byteOffset" : 528
        },
        {
            "buffer" : 0,
            "byteLength" : 352,
            "byteOffset" : 1056
        },
        {
            "buffer" : 0,
            "byteLength" : 216,
            "byteOffset" : 1408
        },
        {
            "buffer" : 0,
            "byteLength" : 7512,
            "byteOffset" : 1624
        },
        {
            "buffer" : 0,
            "byteLength" : 7512,
            "byteOffset" : 9136
        },
        {
            "buffer" : 0,
            "byteLength" : 5008,
            "byteOffset" : 16648
        },
        {
            "buffer" : 0,
            "byteLength" : 2742,
            "byteOffset" : 21656
        },
        {
            "buffer" : 0,
            "byteLength" : 2460,
            "byteOffset" : 24400
        },
        {
            "buffer" : 0,
            "byteLength" : 2460,
            "byteOffset" : 26860
        },
        {
            "buffer" : 0,
            "byteLength" : 1640,
            "byteOffset" : 29320
        },
        {
            "buffer" : 0,
            "byteLength" : 912,
            "byteOffset" : 30960
        },
        {
            "buffer" : 0,
            "byteLength" : 672,
            "byteOffset" : 31872
        },
        {
            "buffer" : 0,
            "byteLength" : 672,
            "byteOffset" : 32544
        },
        {
            "buffer" : 0,
            "byteLength" : 448,
            "byteOffset" : 33216
        },
        {
            "buffer" : 0,
            "byteLength" : 168,
            "byteOffset" : 33664
        },
        {
            "buffer" : 0,
            "byteLength" : 39201,
            "byteOffset" : 33832
        },
        {
            "buffer" : 0,
            "byteLength" : 9672,
            "byteOffset" : 73036
        },
        {
            "buffer" : 0,
            "byteLength" : 9672,
            "byteOffset" : 82708
        },
        {
            "buffer" : 0,
            "byteLength" : 6448,
            "byteOffset" : 92380
        },
        {
            "buffer" : 0,
            "byteLength" : 6414,
            "byteOffset" : 98828
        },
        {
            "buffer" : 0,
            "byteLength" : 660,
            "byteOffset" : 105244
        },
        {
            "buffer" : 0,
            "byteLength" : 660,
            "byteOffset" : 105904
        },
        {
            "buffer" : 0,
            "byteLength" : 440,
            "byteOffset" : 106564
        },
        {
            "buffer" : 0,
            "byteLength" : 480,
            "byteOffset" : 107004
        },
        {
            "buffer" : 0,
            "byteLength" : 24,
            "byteOffset" : 107484
        },
        {
            "buffer" : 0,
            "byteLength" : 72,
            "byteOffset" : 107508
        },
        {
            "buffer" : 0,
            "byteLength" : 72,
            "byteOffset" : 107580
        },
        {
            "buffer" : 0,
            "byteLength" : 72,
            "byteOffset" : 107652
        },
        {
            "buffer" : 0,
            "byteLength" : 8,
            "byteOffset" : 107724
        },
        {
            "buffer" : 0,
            "byteLength" : 32,
            "byteOffset" : 107732
        },
        {
            "buffer" : 0,
            "byteLength" : 96,
            "byteOffset" : 107764
        }
    ],
    "samplers" : [
        {
            "magFilter" : 9729,
            "minFilter" : 9987
        }
    ],
    "buffers" : [
        {
            "byteLength" : 107860,
            "uri" : "data:application/octet-stream;base64,"
        }
    ]
}
